<svg width="100" height="26" viewBox="0 0 100 26" fill="none" xmlns="http://www.w3.org/2000/svg">
<path d="M66.3222 5.92479C64.9148 4.94005 62.8126 4.4375 60.0801 4.4375C54.3393 4.4375 51.6641 6.4579 51.6641 10.7975V21.6024H57.036V10.9164C57.036 8.97407 58.1462 7.8603 60.0801 7.8603C62.014 7.8603 63.1242 9.00463 63.1242 10.9164V21.6024H68.5498V10.7975C68.5498 8.56659 67.8228 6.97064 66.3222 5.92139V5.92479Z" fill="white"/>
<path d="M38.9531 4.4409C36.2707 4.4409 34.2365 4.69217 32.3743 5.24906V8.06404C34.2115 7.60223 35.8159 7.38831 37.406 7.38831C37.85 7.38831 38.7203 7.42905 39.5619 7.71089L39.612 7.72787C41.8109 8.47151 41.836 10.2067 41.836 10.2814V16.5497C41.836 18.3868 40.1743 19.2221 38.6308 19.2221C35.977 19.2221 35.7729 17.0862 35.7729 16.4309C35.7729 14.5633 36.901 13.4903 38.8707 13.4903C39.039 13.4903 39.1966 13.4937 39.3578 13.5038V11.7483C38.8134 11.7008 38.2762 11.677 37.7677 11.677C35.1283 11.677 33.0368 12.312 31.8872 13.4665C31.1316 14.2237 30.752 15.2186 30.752 16.4275C30.752 20.998 35.2429 21.959 39.0068 21.959C42.5487 21.959 44.5793 21.4836 45.8041 20.363C47.0539 19.2221 47.609 17.1949 47.609 13.7891C47.609 7.84672 44.4539 4.4375 38.9531 4.4375V4.4409Z" fill="white"/>
<path d="M8.74548 4.40965H8.6846C5.22151 4.42323 2.89367 5.17027 1.56144 6.69151C0.479891 7.92413 0 9.68646 0 12.403V25.9719L5.34327 22.3827V10.4369C5.35759 9.99207 5.51159 8.89867 6.59313 8.1822C6.68625 8.12107 6.77578 8.07014 6.86889 8.026L7.20195 7.83584L7.24493 7.87319C7.57441 7.76453 7.93253 7.7102 8.30857 7.7102C9.79838 7.7102 10.9551 8.60665 11.3312 10.0498C11.4744 10.5557 11.6499 11.6627 11.6499 13.1025C11.6499 14.6509 11.4601 15.3843 11.1951 16.3962L11.1736 16.4811C10.8728 17.6153 9.65871 18.8207 7.99341 18.8207C7.92179 18.8207 7.85016 18.8207 7.78212 18.8105V21.286C8.97827 21.7783 9.79838 21.8802 10.6579 21.8802C14.9232 21.8802 17.0863 19.1026 17.0863 13.6254C17.0863 10.5422 16.5133 8.34179 15.224 6.9326C13.7163 5.28232 11.4744 4.40625 8.74548 4.40625V4.40965Z" fill="white"/>
<path d="M21.1367 3.95981V21.6205H26.6984V0.224609L21.1367 3.95981Z" fill="white"/>
<path d="M86.3696 25.9999C93.8974 25.9999 100 20.2137 100 13.0761C100 5.93852 93.8974 0.152344 86.3696 0.152344C78.8418 0.152344 72.7393 5.93852 72.7393 13.0761C72.7393 20.2137 78.8418 25.9999 86.3696 25.9999Z" fill="#009DFF"/>
<path d="M92.594 4.70996H80.1455V4.71336L83.4976 6.96466V19.189L80.1455 21.4403V21.4437H92.594V21.4403L89.242 19.189V6.96466L92.594 4.71336V4.70996Z" fill="white"/>
</svg>
